<?xml version="1.0" encoding="UTF-8"?><svg id="uuid-c7224bbd-2363-4d21-b934-45f17ebc9576" xmlns="http://www.w3.org/2000/svg" width="73.37" height="82.26" viewBox="0 0 73.37 82.26"><g id="uuid-3d4e4905-e882-43d6-815b-d1655add5fd4"><path d="M61.63,76.97c7.57-3.84,11.73-9.32,11.73-15.43V18.88c0-.17-.01-.34-.04-.51-.31-5.13-4.55-10-11.66-13.39C54.93,1.77,46.06,0,36.68,0S18.44,1.77,11.7,4.98C4.44,8.44.18,13.46.01,18.73v42.83s-.01,0-.01,0c.03,6.1,4.2,11.57,11.73,15.4,6.73,3.41,15.59,5.29,24.95,5.29s18.22-1.88,24.95-5.29ZM32.97,74.82c-3.71-.22-7.3-.79-10.58-1.65v-36.44c3.34.71,6.92,1.17,10.58,1.35v36.74ZM51.53,36.6v36.42c-3.42.95-7.2,1.56-11.13,1.8v-36.74c3.86-.2,7.63-.7,11.13-1.48ZM58.97,34.36c.94-.37,1.85-.76,2.7-1.16,1.62-.77,3.08-1.61,4.38-2.51v30.84c0,3.07-2.51,6.1-7.08,8.57v-35.74ZM58.51,26.59c-5.77,2.75-13.52,4.27-21.83,4.27s-16.06-1.51-21.83-4.27c-4.64-2.21-7.53-5.09-7.53-7.5s2.88-5.29,7.53-7.5c5.77-2.75,13.52-4.27,21.83-4.27s16.06,1.51,21.83,4.27c4.64,2.21,7.53,5.09,7.53,7.5s-2.88,5.29-7.53,7.5ZM7.32,30.69c1.3.9,2.76,1.74,4.38,2.51,1.02.49,2.11.95,3.26,1.38v35.82c-4.91-2.51-7.62-5.66-7.64-8.84v-30.86Z" style="fill:#0e1824;"/></g></svg>