<?xml version="1.0" encoding="UTF-8"?><svg id="uuid-d4ed5811-9fdb-462c-931b-b83c56b7456b" xmlns="http://www.w3.org/2000/svg" width="82.09" height="82.09" viewBox="0 0 82.09 82.09"><g id="uuid-ffe027b3-b481-42e2-81b4-dc03855e0ba3"><path d="M75.66,26.97c3.8-3.42,5.93-7.29,6.34-11.15.46-3.92-.88-7.77-4.06-11.07-.02-.02-.04-.04-.06-.06-2.04-2.14-4.33-3.54-6.75-4.21-4.86-1.39-10.12.19-14.76,4.64-.45.42-.89.87-1.32,1.35-.43.47-.85.92-1.28,1.34-4.22,4.19-8.44,6.3-12.65,6.34-.03,0-.06,0-.08,0-.03,0-.06,0-.08,0-4.21-.03-8.43-2.14-12.65-6.34-.43-.43-.85-.87-1.28-1.34-.44-.48-.88-.93-1.33-1.36C21.06.68,15.81-.9,10.95.49c-2.42.67-4.71,2.07-6.75,4.21-.02.02-.04.04-.06.06C.97,8.05-.37,11.91.09,15.83c.41,3.85,2.54,7.73,6.34,11.14,5.46,4.9,8.04,9.84,7.75,14.79,0,.04,0,.07,0,.11,0,.06-.01.12-.01.18-.36,4.34-2.94,8.69-7.73,13.06-1.14,1.04-2.38,2.01-3.27,3.24-1.92,2.67-3,5.46-3.11,8.34-.28,3.44.83,6.82,3.36,9.79.9,1.13,1.93,2.08,3.07,2.85,2.44,1.77,5.08,2.68,7.77,2.72.1.01.2.03.3.04.32-.02.64-.05.95-.08,1.02-.08,2.04-.29,3.05-.62,3.28-.99,6.05-2.95,8.54-5.78,1.1-1.25,2.2-2.35,3.3-3.29,3.56-2.98,7.11-4.48,10.65-4.5,3.54.02,7.09,1.53,10.65,4.5,1.1.95,2.2,2.05,3.3,3.3,2.49,2.83,5.26,4.8,8.54,5.78,1.02.33,2.04.53,3.05.62.31.03.63.06.95.08.1-.01.2-.02.3-.04,2.69-.04,5.34-.94,7.77-2.72,1.14-.77,2.17-1.72,3.07-2.85,2.53-2.97,3.64-6.35,3.37-9.79-.11-2.88-1.19-5.68-3.11-8.34-.89-1.23-2.13-2.21-3.27-3.24-4.79-4.37-7.36-8.72-7.73-13.06,0-.06-.01-.12-.02-.18,0-.04,0-.07,0-.11-.29-4.95,2.29-9.89,7.75-14.79Z" style="fill:#0e1824; fill-rule:evenodd;"/></g></svg>