<?xml version="1.0" encoding="UTF-8"?><svg id="uuid-5c917318-d745-4ad8-a6f3-ec0877795be1" xmlns="http://www.w3.org/2000/svg" width="82.09" height="82.09" viewBox="0 0 82.09 82.09"><g id="uuid-5be3d78e-a09c-4719-8393-4ee97e89986a"><circle cx="12.83" cy="12.83" r="12.83" style="fill:#0e1824;"/><path d="M25.5,10.82c1.94,12.26,5.29,15.61,17.56,17.56l-14.68,14.67c-1.94-12.26-5.29-15.61-17.56-17.56l14.68-14.68Z" style="fill:#0e1824;"/><path d="M82.09,12.83c0,7.08-5.74,12.83-12.83,12.83s-12.83-5.74-12.83-12.83S62.18,0,69.26,0s12.83,5.74,12.83,12.83Z" style="fill:#0e1824;"/><path d="M71.27,25.5c-12.26,1.94-15.61,5.3-17.56,17.56l-14.68-14.67c12.26-1.94,15.61-5.3,17.56-17.56l14.68,14.68Z" style="fill:#0e1824;"/><path d="M53.87,41.05c0,7.08-5.74,12.83-12.83,12.83s-12.83-5.74-12.83-12.83,5.74-12.83,12.83-12.83,12.83,5.74,12.83,12.83Z" style="fill:#0e1824;"/><path d="M53.71,39.04c1.94,12.26,5.29,15.61,17.56,17.56l-14.68,14.67c-1.94-12.26-5.29-15.61-17.56-17.56l14.68-14.68Z" style="fill:#0e1824;"/><path d="M43.05,53.71c-12.26,1.94-15.61,5.3-17.56,17.56l-14.68-14.67c12.26-1.94,15.61-5.3,17.56-17.56l14.68,14.68Z" style="fill:#0e1824;"/><circle cx="12.83" cy="69.26" r="12.83" style="fill:#0e1824;"/><path d="M82.09,69.26c0,7.08-5.74,12.83-12.83,12.83s-12.83-5.74-12.83-12.83,5.74-12.83,12.83-12.83,12.83,5.74,12.83,12.83Z" style="fill:#0e1824;"/></g></svg>