<?xml version="1.0" encoding="UTF-8"?><svg id="uuid-f659cfdd-058c-4e1c-a9e4-119f518a1ee0" xmlns="http://www.w3.org/2000/svg" width="82.09" height="82.32" viewBox="0 0 82.09 82.32"><g id="uuid-3bf43b09-4be8-4133-ad17-716415731520"><polygon points="68.24 13.97 68.24 14.16 68.08 13.97 68.24 13.97" style="fill:#0e1824;"/><polygon points="30.78 13.97 44.8 13.97 30.78 30.78 30.78 13.97" style="fill:#0e1824;"/><polygon points="13.85 13.97 14.02 13.97 13.85 14.11 13.85 13.97" style="fill:#0e1824;"/><polygon points="30.78 30.78 51.31 30.78 51.31 51.54 13.85 51.54 13.85 37.2 30.78 51.31 30.78 30.78" style="fill:#0e1824;"/><polygon points="68.24 68.35 67.79 68.35 68.24 67.98 68.24 68.35" style="fill:#0e1824;"/><polygon points="13.85 68.35 13.85 68.16 14.01 68.35 13.85 68.35" style="fill:#0e1824;"/><polygon points="51.31 68.35 37.29 68.35 51.31 51.54 51.31 68.35" style="fill:#0e1824;"/><polygon points="68.24 30.78 68.24 44.89 51.31 30.78 68.24 30.78" style="fill:#0e1824;"/><polygon points="82.09 30.78 68.24 30.78 68.24 14.16 82.09 30.78" style="fill:#0e1824;"/><polygon points="82.09 56.44 68.24 67.98 68.24 44.89 82.09 56.44" style="fill:#0e1824;"/><polygon points="25.65 82.32 14.01 68.35 37.29 68.35 25.65 82.32" style="fill:#0e1824;"/><polygon points="13.85 51.54 13.85 68.16 0 51.54 13.85 51.54" style="fill:#0e1824;"/><polygon points="51.31 82.09 51.31 68.35 67.79 68.35 51.31 82.09" style="fill:#0e1824;"/><polygon points="0 25.65 13.85 14.11 13.85 37.2 0 25.65" style="fill:#0e1824;"/><polygon points="30.78 0 30.78 13.97 14.02 13.97 30.78 0" style="fill:#0e1824;"/><polygon points="56.44 0 68.08 13.97 44.8 13.97 56.44 0" style="fill:#0e1824;"/></g></svg>