<?xml version="1.0" encoding="UTF-8"?><svg id="uuid-25c8419c-58fd-40bb-8fe2-0d97306f6c86" xmlns="http://www.w3.org/2000/svg" width="82.09" height="82.09" viewBox="0 0 82.09 82.09"><g id="uuid-02d5d8fa-3dee-4afd-a38a-c655e7c3e5c3"><rect x="26.27" y="26.27" width="29.55" height="29.55" style="fill:#0e1824;"/><path d="M20.52,20.52h20.52C41.05,9.19,31.86,0,20.52,0S0,9.19,0,20.52s9.19,20.52,20.52,20.52v-20.52Z" style="fill:#0e1824;"/><path d="M20.52,61.57v-20.52C9.19,41.05,0,50.23,0,61.57s9.19,20.52,20.52,20.52,20.52-9.19,20.52-20.52h-20.52Z" style="fill:#0e1824;"/><path d="M61.57,20.52h-20.52C41.05,9.19,50.23,0,61.57,0s20.52,9.19,20.52,20.52-9.19,20.52-20.52,20.52v-20.52Z" style="fill:#0e1824;"/><path d="M61.57,61.57v-20.52c11.33,0,20.52,9.19,20.52,20.52s-9.19,20.52-20.52,20.52-20.52-9.19-20.52-20.52h20.52Z" style="fill:#0e1824;"/></g></svg>