<?xml version="1.0" encoding="UTF-8"?><svg id="uuid-9605435d-a5bc-4f34-9702-856d7459f1c7" xmlns="http://www.w3.org/2000/svg" width="82.09" height="82.09" viewBox="0 0 82.09 82.09"><g id="uuid-7dc4b198-4112-4cab-a815-7d95571b8272"><path d="M82.09,39.64V0h-42.45S0,0,0,0v42.45h0v39.64h42.45s39.64,0,39.64,0v-42.45h0ZM2.82,23.67l18.41,15.96H2.82v-15.96ZM2.82,79.27l18.41-36.81v36.81H2.82ZM39.63,79.27h-15.96l15.96-18.41v18.41ZM2.82,21.23V2.82l36.81,18.41H2.82ZM79.27,2.82l-18.41,36.81V2.82h18.41ZM42.46,2.82h15.96l-15.96,18.41V2.82ZM79.27,79.27l-36.81-18.41h36.81v18.41ZM60.86,42.46h18.41v15.96l-18.41-15.96Z" style="fill:#0e1824;"/></g></svg>