<?xml version="1.0" encoding="UTF-8"?><svg id="uuid-c71eb3de-e4c1-40a7-bc95-df1fc900d3df" xmlns="http://www.w3.org/2000/svg" width="82.09" height="82.09" viewBox="0 0 82.09 82.09"><g id="uuid-52055205-d459-443e-9ba1-325e2ebaeefa"><path d="M0,82.09h82.09v-12.07l-5.42,5.42c-.63.63-1.73.63-2.36,0-.32-.32-.49-.73-.49-1.18s.17-.87.49-1.18l7.78-7.78v-4.93l-15.13,15.13c-.63.63-1.73.63-2.36,0-.32-.32-.49-.74-.49-1.18s.17-.87.49-1.18l17.49-17.49v-4.93l-24.83,24.83c-.63.63-1.73.63-2.36,0-.32-.32-.49-.74-.49-1.18s.17-.87.49-1.18l27.2-27.2v-4.93l-34.4,34.4c-.63.63-1.73.63-2.36,0-.65-.65-.65-1.71,0-2.36l36.76-36.76v-4.93l-43.96,43.96c-.63.63-1.73.63-2.36,0-.32-.32-.49-.74-.49-1.18s.17-.87.49-1.18l46.32-46.32v-4.93l-53.52,53.52c-.63.63-1.73.63-2.36,0-.32-.32-.49-.73-.49-1.18s.17-.87.49-1.18l55.88-55.88v-4.93l-63.08,63.08c-.63.63-1.73.63-2.36,0-.32-.32-.49-.74-.49-1.18s.17-.87.49-1.18L82.09,7.35V2.42L9,75.51c-.32.32-.73.49-1.18.49s-.87-.17-1.18-.49c-.32-.32-.49-.74-.49-1.18s.17-.87.49-1.18L79.79,0h-4.93L9.35,65.5c-.32.32-.74.49-1.18.49s-.87-.17-1.18-.49c-.65-.65-.65-1.71,0-2.36L70.13,0h-4.93L9.26,55.94c-.32.32-.74.49-1.18.49s-.87-.17-1.18-.49c-.65-.65-.65-1.71,0-2.36L60.47,0h-4.93L9.16,46.38c-.63.63-1.73.63-2.36,0-.65-.65-.65-1.71,0-2.36L50.81,0h-4.93L9.06,36.82c-.63.63-1.73.63-2.36,0-.65-.65-.65-1.71,0-2.36L41.16,0h-4.93L8.97,27.26c-.63.63-1.73.63-2.36,0-.65-.65-.65-1.71,0-2.36L31.5,0h-4.93L9.02,17.55c-.32.32-.73.49-1.18.49s-.87-.17-1.18-.49c-.65-.65-.65-1.71,0-2.36L21.84,0h-4.93l-7.84,7.84c-.32.32-.74.49-1.18.49s-.87-.17-1.18-.49c-.65-.65-.65-1.71,0-2.36L12.18,0H0v82.09Z" style="fill:#0e1824;"/></g></svg>