<?xml version="1.0" encoding="UTF-8"?><svg id="uuid-fd64201a-35bf-433c-9c0a-4af52f3f786f" xmlns="http://www.w3.org/2000/svg" width="82.09" height="82.09" viewBox="0 0 82.09 82.09"><g id="uuid-eb670d36-ab50-4eb3-8601-43940581348e"><polygon points="20.52 41.05 20.52 20.52 0 20.52 10.14 30.78 0 41.05 20.52 41.05" style="fill:#0e1824;"/><polygon points="41.04 20.52 20.11 20.11 20.52 41.05 30.78 30.9 41.04 41.05 41.04 20.52" style="fill:#0e1824;"/><polygon points="20.52 0 20.52 20.52 41.04 20.52 30.9 10.26 41.04 0 20.52 0" style="fill:#0e1824;"/><polygon points="0 20.52 20.93 20.93 20.52 0 10.26 10.14 0 0 0 20.52" style="fill:#0e1824;"/><polygon points="61.57 41.05 61.57 20.52 41.04 20.52 51.19 30.78 41.04 41.05 61.57 41.05" style="fill:#0e1824;"/><polygon points="82.09 20.52 61.16 20.11 61.57 41.05 71.83 30.9 82.09 41.05 82.09 20.52" style="fill:#0e1824;"/><polygon points="61.57 0 61.57 20.52 82.09 20.52 71.95 10.26 82.09 0 61.57 0" style="fill:#0e1824;"/><polygon points="41.04 20.52 61.98 20.93 61.57 0 51.31 10.14 41.04 0 41.04 20.52" style="fill:#0e1824;"/><polygon points="20.52 82.09 20.52 61.57 0 61.57 10.14 71.83 0 82.09 20.52 82.09" style="fill:#0e1824;"/><polygon points="41.04 61.57 20.11 61.16 20.52 82.09 30.78 71.95 41.04 82.09 41.04 61.57" style="fill:#0e1824;"/><polygon points="20.52 41.05 20.52 61.57 41.04 61.57 30.9 51.31 41.04 41.05 20.52 41.05" style="fill:#0e1824;"/><polygon points="0 61.57 20.93 61.98 20.52 41.05 10.26 51.19 0 41.05 0 61.57" style="fill:#0e1824;"/><polygon points="61.57 82.09 61.57 61.57 41.04 61.57 51.19 71.83 41.04 82.09 61.57 82.09" style="fill:#0e1824;"/><polygon points="82.09 61.57 61.16 61.16 61.57 82.09 71.83 71.95 82.09 82.09 82.09 61.57" style="fill:#0e1824;"/><polygon points="61.57 41.05 61.57 61.57 82.09 61.57 71.95 51.31 82.09 41.05 61.57 41.05" style="fill:#0e1824;"/><polygon points="41.04 61.57 61.98 61.98 61.57 41.05 51.31 51.19 41.04 41.05 41.04 61.57" style="fill:#0e1824;"/></g></svg>