<?xml version="1.0" encoding="UTF-8"?><svg id="uuid-8278125b-4ffe-43b3-aa77-7b0f12a84ffd" xmlns="http://www.w3.org/2000/svg" width="82.09" height="82.09" viewBox="0 0 82.09 82.09"><g id="uuid-d65e976e-582d-4241-a882-71d341350027"><path d="M18.28,12.61c-4.82,1.18-9.65,2.35-14.48,3.51-1.26.3-2.53.61-3.81.93v19.52c.84.95,1.69,1.9,2.54,2.84-.85.11-1.69.21-2.54.32v7.78c3.14-.25,6.27-.51,9.41-.77,5.53,5.73,11.23,11.27,16.9,16.68-8.45.18-16.9.34-25.35.46-.32-.3-.64-.61-.96-.91v9.52c3.39,3.24,6.72,6.44,9.95,9.6h10.55c-3.73-3.55-7.61-7.16-11.57-10.83,8.86.3,17.73.59,26.59.87,3.56,3.37,7.06,6.68,10.43,9.96h9.07c-3.24-3.18-6.57-6.39-9.97-9.65,8.09.26,16.18.49,24.27.73,2.97,3,5.91,5.97,8.77,8.91h3.99v-3.73c-1.58-1.64-3.17-3.29-4.78-4.95,1.59.05,3.19.08,4.78.13v-11.39c-5.1.11-10.2.21-15.31.33-5.87-6.16-11.73-12.49-17.3-19.02,7.71-.61,15.43-1.21,23.14-1.78,3.06,3.98,6.24,7.88,9.47,11.72v-9.2c-.77-1.01-1.55-2.01-2.3-3.03.77-.05,1.53-.1,2.3-.16v-11.21c-3.19.34-6.37.68-9.55,1.04-3.97-6.01-7.6-12.18-10.72-18.54,6.75-1.3,13.51-2.53,20.27-3.72V0h-10.75c-4.55,1-9.09,2.03-13.63,3.08-.41-1.02-.79-2.05-1.17-3.08h-8.39c.63,1.64,1.28,3.26,1.98,4.87-7.98,1.9-15.96,3.85-23.94,5.8-1.92-3.49-3.65-7.05-5.22-10.67h-9.19c1.93,4.3,4.11,8.5,6.52,12.61ZM58.97,62.67c-7.83.18-15.67.37-23.51.54-5.76-5.58-11.54-11.3-17.13-17.21,7.77-.64,15.53-1.28,23.3-1.91,5.61,6.38,11.47,12.56,17.34,18.58ZM54.39,13.75c3.22,6.15,6.91,12.11,10.92,17.92-7.73.9-15.47,1.83-23.2,2.79-4.04-5.17-7.84-10.47-11.29-15.93,7.85-1.62,15.71-3.22,23.57-4.77ZM34.31,35.43c-7.67.96-15.34,1.93-23.01,2.89C7.41,33.93,3.69,29.43.2,24.81c.78-.16,1.56-.32,2.33-.48,6.83-1.38,13.65-2.78,20.46-4.19,3.48,5.24,7.29,10.33,11.31,15.29Z" style="fill:#0e1824;"/></g></svg>