<?xml version="1.0" encoding="UTF-8"?><svg id="uuid-347553df-bba0-40b2-98b8-46170dd24112" xmlns="http://www.w3.org/2000/svg" width="82.36" height="82.26" viewBox="0 0 82.36 82.26"><g id="uuid-abbf41d1-8f46-4fb0-989b-d972205f6ae8"><path d="M82.36,25.01c0-13.79-11.22-25.01-25.01-25.01-5.97,0-11.65,2.1-16.17,5.93C36.66,2.1,30.98,0,25.01,0,11.22,0,0,11.22,0,25.01c0,5.94,2.08,11.61,5.89,16.12-3.81,4.51-5.89,10.18-5.89,16.12,0,13.79,11.22,25.01,25.01,25.01,5.97,0,11.66-2.1,16.17-5.93,4.52,3.84,10.2,5.93,16.17,5.93,13.79,0,25.01-11.22,25.01-25.01,0-5.94-2.08-11.61-5.89-16.12,3.81-4.51,5.89-10.18,5.89-16.12ZM25.01,5.39c4.58,0,8.95,1.57,12.46,4.46-3.31,4.34-5.12,9.67-5.12,15.17,0,3.06.56,6.07,1.63,8.89-2.84-1.09-5.88-1.66-8.96-1.66-5.52,0-10.86,1.82-15.21,5.16-2.85-3.5-4.41-7.84-4.41-12.39C5.39,14.19,14.19,5.39,25.01,5.39ZM57.35,5.39c10.82,0,19.62,8.8,19.62,19.62,0,4.55-1.56,8.9-4.41,12.39-4.35-3.34-9.7-5.16-15.21-5.16-3.09,0-6.12.57-8.96,1.66,1.07-2.82,1.63-5.83,1.63-8.89,0-5.5-1.81-10.82-5.12-15.17,3.5-2.88,7.87-4.46,12.45-4.46ZM57.35,44.63c-4.01,0-7.92-1.23-11.19-3.5,3.27-2.27,7.17-3.5,11.19-3.5s7.92,1.23,11.19,3.5c-3.27,2.27-7.18,3.5-11.19,3.5ZM13.82,41.13c3.27-2.27,7.17-3.5,11.19-3.5s7.92,1.23,11.19,3.5c-3.27,2.27-7.18,3.5-11.19,3.5s-7.92-1.23-11.19-3.5ZM41.18,36.12c-2.24-3.25-3.45-7.13-3.45-11.12s1.22-7.86,3.45-11.12c2.24,3.26,3.45,7.14,3.45,11.12s-1.22,7.86-3.45,11.12ZM9.79,44.86c4.35,3.34,9.7,5.16,15.21,5.16,3.09,0,6.12-.57,8.96-1.66-1.07,2.82-1.63,5.83-1.63,8.89,0,5.5,1.81,10.82,5.12,15.16-3.5,2.89-7.87,4.46-12.46,4.46-10.82,0-19.62-8.8-19.62-19.62,0-4.55,1.56-8.9,4.41-12.39ZM41.18,46.13c2.24,3.26,3.45,7.13,3.45,11.12s-1.22,7.86-3.45,11.12c-2.24-3.25-3.45-7.13-3.45-11.12s1.22-7.86,3.45-11.12ZM50.02,57.25c0-3.06-.56-6.07-1.63-8.89,2.84,1.09,5.87,1.66,8.96,1.66,5.52,0,10.86-1.82,15.21-5.16,2.85,3.5,4.41,7.84,4.41,12.39,0,10.82-8.8,19.62-19.62,19.62-4.58,0-8.95-1.57-12.45-4.46,3.31-4.34,5.12-9.67,5.12-15.16Z" style="fill:#0e1824;"/></g></svg>