<?xml version="1.0" encoding="UTF-8"?><svg id="uuid-2cd98fc5-58fa-4e8d-9ab0-25f6d408a359" xmlns="http://www.w3.org/2000/svg" width="82.26" height="82.26" viewBox="0 0 82.26 82.26"><g id="uuid-addb87a8-9730-4b94-b85f-aa7d5b888955"><path d="M42.17,37.45c-1.7-.44-3.48-.68-5.32-.68v5.09c2.01-1.17,3.8-2.67,5.32-4.42Z" style="fill:#0e1824;"/><path d="M15.46,37.96c-1.7-.44-3.48-.68-5.32-.68v5.09c2.01-1.17,3.8-2.67,5.32-4.42Z" style="fill:#0e1824;"/><path d="M64.47,41.86c2.01-1.17,3.8-2.67,5.32-4.42-1.7-.44-3.48-.68-5.32-.68v5.09Z" style="fill:#0e1824;"/><path d="M64.47,78.94v-37.07c-3.12,1.82-6.74,2.87-10.62,2.87V2.57c11.64,0,21.08,9.44,21.08,21.08,0,5.28-1.94,10.1-5.15,13.8,5.22,1.36,9.65,4.66,12.47,9.09V0H0v3.09c11.42.25,20.61,9.59,20.61,21.07,0,5.28-1.94,10.1-5.15,13.8,9.07,2.36,15.76,10.6,15.76,20.4,0,11.64-9.44,21.08-21.08,21.08v-37.07c-2.99,1.75-6.45,2.78-10.14,2.86v37.02h82.26v-13.1c-3.74,5.88-10.31,9.78-17.79,9.78ZM36.85,78.94v-37.07c-3.12,1.82-6.74,2.87-10.62,2.87V2.57c11.64,0,21.08,9.44,21.08,21.08,0,5.28-1.94,10.1-5.15,13.8,9.07,2.36,15.76,10.6,15.76,20.4,0,11.64-9.44,21.08-21.08,21.08Z" style="fill:#0e1824;"/></g></svg>