<?xml version="1.0" encoding="UTF-8"?><svg id="uuid-40294d30-97b8-4a99-a58d-14fee488dcb7" xmlns="http://www.w3.org/2000/svg" width="82.34" height="82.26" viewBox="0 0 82.34 82.26"><g id="uuid-0d685589-4ff8-4112-a1d2-6836303e39b2"><path d="M41.17,40.99s-12.94,13.7-13.76,13.76h-13.66c-7.6,0-13.76-6.16-13.76-13.76s6.16-13.76,13.76-13.76h13.66l13.76,13.76Z" style="fill:#0e1824;"/><path d="M82.34,40.99s-12.94,13.7-13.76,13.76h-13.66c-7.6,0-13.76-6.16-13.76-13.76s6.16-13.76,13.76-13.76h13.66l13.76,13.76Z" style="fill:#0e1824;"/><path d="M41.17,68.5s12.94-13.7,13.76-13.76h13.66c7.6,0,13.76,6.16,13.76,13.76s-6.16,13.76-13.76,13.76h-13.66l-13.76-13.76Z" style="fill:#0e1824;"/><path d="M0,68.5s12.94-13.7,13.76-13.76h13.66c7.6,0,13.76,6.16,13.76,13.76s-6.16,13.76-13.76,13.76h-13.66L0,68.5Z" style="fill:#0e1824;"/><path d="M41.17,13.76S54.11.05,54.93,0h13.66c7.6,0,13.76,6.16,13.76,13.76s-6.16,13.76-13.76,13.76h-13.66l-13.76-13.76Z" style="fill:#0e1824;"/><path d="M0,13.76S12.94.05,13.76,0h13.66c7.6,0,13.76,6.16,13.76,13.76s-6.16,13.76-13.76,13.76h-13.66L0,13.76Z" style="fill:#0e1824;"/></g></svg>