<?xml version="1.0" encoding="UTF-8"?><svg id="uuid-a083751c-a896-4e01-ab82-f4d44e4feda6" xmlns="http://www.w3.org/2000/svg" width="81.82" height="82.26" viewBox="0 0 81.82 82.26"><g id="uuid-423ad9b0-f83f-49dd-a770-58656009213a"><polygon points="30.45 82.26 39.96 74.35 39.96 61.69 39.96 54.31 30.45 41.13 19.96 41.13 20.93 61.69 20.93 82.26 30.45 82.26" style="fill:#0e1824;"/><polygon points="51.38 82.26 60.89 74.35 60.89 61.69 60.89 59.59 51.38 41.13 40.9 41.13 41.86 61.69 41.86 82.26 51.38 82.26" style="fill:#0e1824;"/><polygon points="72.31 82.26 81.82 74.35 81.82 72.24 81.82 64.86 72.31 41.13 61.83 41.13 62.8 61.69 62.8 82.26 72.31 82.26" style="fill:#0e1824;"/><polygon points="72.31 0 62.8 7.91 62.8 20.56 62.8 33.22 72.31 41.13 81.82 41.13 81.82 20.56 81.82 0 72.31 0" style="fill:#0e1824;"/><polygon points="51.38 0 41.86 7.91 41.86 20.56 41.86 27.95 51.38 41.13 61.86 41.13 60.89 20.56 60.89 0 51.38 0" style="fill:#0e1824;"/><polygon points="30.45 0 20.93 7.91 20.93 20.56 20.93 22.67 30.45 41.13 40.93 41.13 39.96 20.56 39.96 0 30.45 0" style="fill:#0e1824;"/><polygon points="9.51 82.26 19.03 74.35 19.03 61.69 19.03 49.04 9.51 41.13 0 41.13 0 61.69 0 82.26 9.51 82.26" style="fill:#0e1824;"/><polygon points="9.51 0 0 7.91 0 10.02 0 17.4 9.51 41.13 20 41.13 19.03 20.56 19.03 0 9.51 0" style="fill:#0e1824;"/></g></svg>