<?xml version="1.0" encoding="UTF-8"?><svg id="uuid-5bf01f36-cae8-40c9-b7f6-a18600d1cad3" xmlns="http://www.w3.org/2000/svg" width="82.09" height="82.26" viewBox="0 0 82.09 82.26"><g id="uuid-d0278442-8e2f-4a51-a54d-1c1120f7da6a"><polygon points="82.09 70.89 74.33 56.04 82.09 41.13 41.04 65.05 5.83 59.51 0 70.89 0 82.26 41.04 82.26 76.25 82.26 82.09 70.89" style="fill:#0e1824;"/><polygon points="82.09 41.13 82.09 29.76 41.04 29.76 5.83 29.76 0 41.13 0 52.5 41.04 52.5 76.25 52.5 82.09 41.13" style="fill:#0e1824;"/><polygon points="82.09 11.37 82.09 0 41.04 0 5.83 0 0 11.37 7.75 25.88 0 41.13 41.04 17.21 76.25 22.74 82.09 11.37" style="fill:#0e1824;"/></g></svg>