<?xml version="1.0" encoding="UTF-8"?><svg id="uuid-e594c9df-1288-4e7f-a2d6-d70127430ddd" xmlns="http://www.w3.org/2000/svg" width="82.26" height="82.26" viewBox="0 0 82.26 82.26"><g id="uuid-08f5b1cf-9344-42d6-b367-4957dffc1061"><polygon points="76.33 5.11 76.17 10.22 0 10.22 0 0 82.26 0 82.26 5.11 76.33 5.11" style="fill:#0e1824;"/><polygon points="62.53 19.52 62.37 24.63 0 24.63 0 14.41 82.26 14.41 82.26 19.52 62.53 19.52" style="fill:#0e1824;"/><polygon points="48.72 33.93 48.57 39.03 0 39.03 0 28.82 82.26 28.82 82.26 33.93 48.72 33.93" style="fill:#0e1824;"/><polygon points="34.92 48.33 34.76 53.44 0 53.44 0 43.23 82.26 43.23 82.26 48.33 34.92 48.33" style="fill:#0e1824;"/><polygon points="21.11 62.74 20.96 67.85 0 67.85 0 57.63 82.26 57.63 82.26 62.74 21.11 62.74" style="fill:#0e1824;"/><polygon points="7.31 77.15 7.15 82.26 0 82.26 0 72.04 82.26 72.04 82.26 77.15 7.31 77.15" style="fill:#0e1824;"/></g></svg>