<?xml version="1.0" encoding="UTF-8"?><svg id="uuid-fda4e203-309d-40f0-84b1-79adb0758824" xmlns="http://www.w3.org/2000/svg" width="82.26" height="82.26" viewBox="0 0 82.26 82.26"><g id="uuid-b9db6852-18fa-4d0a-933b-444fc1539fc7"><polygon points="0 41.13 20.56 41.13 30.85 30.85 41.13 20.56 41.13 0 20.56 0 10.28 10.28 0 0 0 41.13" style="fill:#0e1824;"/><polygon points="0 82.26 20.56 82.26 30.85 71.98 41.13 61.69 41.13 41.13 20.56 41.13 10.28 51.41 0 61.69 0 82.26" style="fill:#0e1824;"/><polygon points="41.13 41.13 61.69 41.13 71.98 30.85 82.26 20.56 82.26 0 61.69 0 51.41 10.28 41.13 20.56 41.13 41.13" style="fill:#0e1824;"/><polygon points="41.13 82.26 61.69 82.26 71.98 71.98 82.26 82.26 82.26 41.13 61.69 41.13 51.41 51.41 41.13 61.69 41.13 82.26" style="fill:#0e1824;"/></g></svg>