<?xml version="1.0" encoding="UTF-8"?><svg id="uuid-c1d4ee2e-7149-413e-b3a2-559090b058b9" xmlns="http://www.w3.org/2000/svg" width="82.26" height="82.26" viewBox="0 0 82.26 82.26"><g id="uuid-78746db5-ecc7-4e21-a0ad-7bda3fa5c6c5"><path d="M0,49.07h11.08v33.19h37.99v-11.08h33.19v-37.99h-11.08V0h-37.99v11.08H0v37.99ZM38.74,54.63v6.22h-5.55v5.53h-6.22v-11.74h11.77ZM32.47,49.79v-6.22h6.22v6.22h-6.22ZM27.63,38.74h-6.22v-5.55h-5.53v-6.22h11.74v11.77ZM44.24,77.42H15.92v-28.35h6.22v22.13l22.1-.03v6.25ZM43.52,27.63v-6.22h5.55v-5.53h6.22v11.74h-11.77ZM49.79,32.47v6.22h-6.22v-6.22h6.22ZM43.58,49.79v-6.22h6.22v6.22h-6.22ZM77.42,38.02v28.32h-28.35v-6.22h22.13l-.03-22.11h6.25ZM66.37,55.29h-11.74v-11.77h6.22v5.55h5.53v6.22ZM38.02,4.84h28.32v28.35h-6.22V11.05l-22.11.03v-6.25ZM38.68,32.47v6.22h-6.22v-6.22h6.22ZM4.84,15.92h28.35v6.22H11.05l.03,22.11h-6.25V15.92Z" style="fill:#0e1824;"/></g></svg>