<?xml version="1.0" encoding="UTF-8"?><svg id="uuid-5f4259f8-b368-4663-9be3-8f34895b7807" xmlns="http://www.w3.org/2000/svg" width="82.09" height="80.95" viewBox="0 0 82.09 80.95"><g id="uuid-995e8d3e-a045-4c7f-9bcc-9dfd5f64e352"><path d="M81.8,10.17c-1.43-6.36-7.75-10.36-14.12-8.93-2.48.56-4.6,1.87-6.18,3.63,2.39,2.29,4.16,5.28,4.94,8.76.78,3.47.47,6.93-.71,10.03,2.18.91,4.66,1.19,7.14.63,6.36-1.43,10.36-7.75,8.93-14.11Z" style="fill:#0e1824;"/><path d="M58.75,15.36c-.87-3.88.28-7.74,2.75-10.48C57.42.96,51.51-.91,45.57.43c-3.31.74-6.18,2.38-8.42,4.6,4.16,3.18,7.27,7.77,8.5,13.28,1.24,5.5.4,10.99-2,15.64,2.98,1.04,6.28,1.29,9.58.55,5.94-1.34,10.48-5.55,12.49-10.84-3.41-1.43-6.1-4.42-6.97-8.3Z" style="fill:#0e1824;"/><path d="M32.37,21.29c-1.37-6.1.63-12.17,4.78-16.27C31.9,1.02,24.99-.73,18.04.84,5.59,3.64-2.23,16,.57,28.45c2.8,12.45,15.17,20.27,27.62,17.47,6.95-1.56,12.45-6.11,15.47-11.98-5.5-1.92-9.91-6.55-11.28-12.65Z" style="fill:#0e1824;"/><path d="M.29,70.77c1.43,6.36,7.75,10.36,14.11,8.93,2.48-.56,4.6-1.87,6.18-3.63-2.39-2.29-4.16-5.28-4.94-8.76-.78-3.47-.47-6.93.71-10.03-2.18-.91-4.66-1.19-7.14-.63-6.36,1.43-10.36,7.75-8.93,14.11Z" style="fill:#0e1824;"/><path d="M23.34,65.59c.87,3.88-.28,7.74-2.75,10.48,4.09,3.92,9.99,5.78,15.93,4.44,3.31-.74,6.18-2.38,8.42-4.6-4.16-3.18-7.27-7.77-8.5-13.28-1.24-5.5-.4-10.99,2-15.64-2.98-1.04-6.28-1.29-9.58-.55-5.94,1.34-10.48,5.55-12.49,10.84,3.41,1.43,6.1,4.42,6.97,8.3Z" style="fill:#0e1824;"/><path d="M49.72,59.65c1.37,6.1-.63,12.17-4.78,16.26,5.25,4.01,12.17,5.76,19.11,4.19,12.45-2.8,20.27-15.17,17.47-27.62-2.8-12.45-15.17-20.27-27.62-17.47-6.95,1.56-12.45,6.11-15.47,11.98,5.5,1.92,9.91,6.55,11.28,12.65Z" style="fill:#0e1824;"/></g></svg>