<?xml version="1.0" encoding="UTF-8"?><svg id="uuid-fe52e39c-ba40-45b1-863f-98d29014f015" xmlns="http://www.w3.org/2000/svg" width="82" height="82.26" viewBox="0 0 82 82.26"><g id="uuid-133a7345-7353-4bd0-b872-ee3fbc134161"><circle cx="38.29" cy="40.35" r="34.37" transform="translate(-5.97 6.65) rotate(-9.22)" style="fill:#0e1824;"/><path d="M81.98,41.85s-.08-.78-.23-2.16c-.04-.34-.08-.72-.12-1.14-.08-.46-.17-.95-.27-1.48-.1-.53-.2-1.09-.31-1.68-.03-.15-.06-.29-.09-.44-.04-.14-.08-.29-.12-.44-.08-.29-.16-.59-.25-.9-.17-.61-.35-1.24-.53-1.9-.23-.64-.48-1.3-.72-1.98-.13-.34-.25-.68-.38-1.03-.12-.35-.3-.68-.45-1.03-.32-.68-.64-1.38-.98-2.09-.36-.69-.77-1.38-1.16-2.07-.2-.35-.39-.7-.61-1.04-.23-.33-.46-.67-.69-1.01-.23-.34-.46-.67-.69-1.01-.23-.34-.46-.68-.73-.99-.52-.64-1.03-1.28-1.55-1.92-.53-.62-1.12-1.2-1.68-1.8-.29-.29-.55-.6-.85-.87-.3-.27-.6-.54-.9-.81-.3-.27-.6-.53-.89-.8l-.44-.4-.47-.36c-.62-.47-1.24-.94-1.84-1.41-.61-.45-1.26-.83-1.86-1.23-.31-.2-.61-.39-.91-.58-.3-.19-.62-.34-.92-.51-.61-.33-1.2-.64-1.77-.95-.57-.3-1.16-.52-1.71-.77-.55-.24-1.07-.48-1.58-.68-.52-.18-1-.34-1.46-.5-.46-.16-.88-.3-1.28-.44-.4-.12-.78-.2-1.11-.29-1.34-.34-2.1-.53-2.1-.53,0,0,.73.29,2.01.8.32.13.68.26,1.05.43.37.18.77.38,1.2.59.43.21.88.44,1.36.67.47.26.94.56,1.44.86.5.31,1.03.59,1.55.95.51.37,1.04.74,1.58,1.13.27.2.55.38.81.6.26.22.52.44.79.67.52.46,1.09.89,1.61,1.39.51.51,1.03,1.02,1.55,1.54l.39.39.36.42c.24.28.49.57.73.85.24.28.49.57.73.85.24.29.45.61.68.91.44.62.91,1.21,1.32,1.84.39.64.79,1.29,1.18,1.93.21.31.37.65.54.98.17.33.34.66.5.99.17.33.33.65.5.98.15.33.28.67.42,1.01.27.67.55,1.32.79,1.97.21.66.41,1.32.62,1.95.09.32.22.63.28.95.07.32.14.63.21.94.14.62.27,1.22.4,1.8.08.59.16,1.16.24,1.7.04.27.08.54.11.8.02.13.04.26.06.38,0,.12.01.25.02.37.03.48.05.93.07,1.36.03.42.05.82.07,1.18,0,.42-.02.8-.03,1.14-.03,1.38-.05,2.17-.05,2.17-.04,1.81,1.4,3.32,3.21,3.36s3.32-1.4,3.36-3.21c0-.14,0-.29-.02-.43Z" style="fill:#0e1824;"/><path d="M13.74,77.95s.72.32,1.98.88c.32.14.66.29,1.05.46.44.16.91.33,1.42.51.5.18,1.04.37,1.61.57.14.05.28.1.43.15.14.04.29.08.44.11.29.08.59.15.9.23.61.16,1.25.32,1.91.49.67.13,1.37.24,2.08.36.36.06.72.12,1.08.18.36.07.74.08,1.12.12.75.07,1.52.13,2.3.2.78.03,1.58.02,2.38.03.4,0,.8.01,1.21,0,.4-.03.81-.06,1.22-.09.41-.03.81-.06,1.22-.09.41-.03.82-.06,1.22-.13.81-.13,1.62-.25,2.44-.38.81-.15,1.6-.37,2.39-.55.39-.1.79-.18,1.18-.3.39-.13.77-.25,1.15-.37.38-.12.76-.25,1.14-.37l.56-.18.55-.23c.72-.3,1.44-.6,2.14-.89.69-.3,1.35-.68,2-1,.32-.17.64-.33.96-.49.31-.16.6-.37.9-.54.59-.36,1.16-.72,1.71-1.06.55-.35,1.03-.75,1.52-1.09.48-.36.95-.69,1.37-1.03.41-.36.8-.7,1.17-1.02.36-.32.7-.62,1.02-.89.31-.28.56-.57.81-.82.96-.99,1.51-1.56,1.51-1.56,0,0-.62.49-1.7,1.35-.27.21-.56.46-.9.7-.34.23-.72.48-1.11.74-.4.26-.82.54-1.26.84-.46.28-.96.54-1.46.82-.52.27-1.03.6-1.6.86-.57.26-1.16.53-1.77.8-.31.13-.6.29-.92.4-.32.11-.65.23-.97.35-.66.23-1.31.5-2.01.7-.69.19-1.4.38-2.11.57l-.53.14-.55.1c-.37.07-.73.14-1.1.21-.37.07-.74.14-1.11.21-.37.07-.75.09-1.13.13-.75.07-1.5.18-2.26.22-.75.02-1.51.04-2.26.06-.37.02-.75,0-1.12-.02-.37-.02-.74-.04-1.11-.06-.37-.02-.73-.04-1.1-.06-.36-.03-.72-.1-1.08-.14-.71-.1-1.42-.18-2.1-.3-.68-.15-1.35-.3-2-.44-.32-.08-.65-.12-.96-.23-.31-.1-.62-.19-.92-.29-.6-.19-1.19-.37-1.76-.55-.55-.22-1.08-.44-1.59-.65-.25-.1-.5-.2-.75-.3-.12-.05-.24-.1-.36-.14-.11-.06-.22-.11-.33-.17-.43-.22-.83-.42-1.21-.62-.38-.19-.73-.37-1.06-.53-.36-.22-.68-.41-.98-.59-1.18-.72-1.85-1.13-1.85-1.13-1.55-.94-3.57-.45-4.52,1.1-.94,1.55-.45,3.57,1.1,4.52.12.07.26.14.38.2Z" style="fill:#0e1824;"/><path d="M18.35.63s-.64.47-1.75,1.28c-.28.2-.59.43-.92.67-.36.3-.74.63-1.15.97-.41.35-.84.72-1.3,1.11-.11.1-.23.2-.34.3-.1.11-.21.21-.32.32-.21.22-.43.44-.65.66-.44.45-.9.92-1.38,1.41-.45.52-.89,1.06-1.35,1.62-.23.28-.46.56-.7.84-.24.28-.44.6-.66.91-.43.62-.87,1.25-1.32,1.89-.42.66-.81,1.36-1.21,2.05-.2.35-.41.69-.6,1.05-.18.36-.35.73-.53,1.1-.18.37-.35.74-.53,1.1-.18.37-.36.74-.5,1.13-.3.77-.59,1.53-.89,2.3-.27.77-.48,1.57-.72,2.35-.11.39-.24.78-.33,1.17-.08.4-.17.79-.25,1.18-.08.39-.17.78-.25,1.17l-.12.58-.08.59c-.1.78-.2,1.54-.3,2.3-.08.75-.09,1.5-.13,2.23-.02.36-.03.72-.05,1.08-.02.35.01.71.02,1.05.02.69.04,1.36.06,2.01.03.65.13,1.27.19,1.86.07.6.12,1.17.2,1.7.1.53.2,1.04.3,1.52.09.47.18.92.26,1.33.09.41.21.77.3,1.11.38,1.33.59,2.09.59,2.09,0,0-.11-.78-.32-2.14-.05-.34-.12-.71-.15-1.13-.03-.41-.05-.86-.09-1.34-.03-.47-.06-.98-.1-1.51-.01-.53.01-1.1.02-1.68.02-.58,0-1.19.05-1.82.06-.62.13-1.27.19-1.93.04-.33.05-.67.11-1,.06-.34.12-.67.18-1.02.13-.68.23-1.39.4-2.08.18-.69.37-1.4.56-2.12l.14-.53.19-.53c.12-.35.25-.7.37-1.06.12-.35.25-.71.37-1.06.13-.35.3-.69.45-1.04.32-.69.6-1.39.94-2.06.36-.66.72-1.32,1.08-1.98.17-.33.37-.65.58-.96.2-.31.41-.62.61-.93.2-.31.4-.61.6-.92.21-.3.44-.58.66-.86.45-.57.87-1.14,1.31-1.67.47-.51.93-1.02,1.39-1.51.23-.24.43-.5.68-.72.24-.22.48-.44.71-.65.46-.43.92-.84,1.35-1.25.47-.36.92-.72,1.36-1.06.22-.17.43-.33.63-.5.1-.08.2-.16.31-.24.1-.07.21-.13.31-.2.4-.26.78-.51,1.14-.74.35-.23.68-.45.99-.65.36-.2.7-.38,1-.55,1.21-.66,1.9-1.04,1.9-1.04,1.59-.87,2.18-2.87,1.31-4.46-.87-1.59-2.87-2.18-4.46-1.31-.12.07-.25.15-.36.23Z" style="fill:#0e1824;"/></g></svg>